<?xml version="1.0" encoding="UTF-8" standalone="no"?>
<!DOCTYPE svg PUBLIC "-//W3C//DTD SVG 1.1//EN" "http://www.w3.org/Graphics/SVG/1.1/DTD/svg11.dtd">
<svg width="54.00" height="54.00" viewBox="0.00 0.00 900.00 900.00" xmlns="http://www.w3.org/2000/svg" xmlns:xlink="http://www.w3.org/1999/xlink">
<g stroke-linecap="round" id="Layer_4_Copy_5">
<path d="M85.92,230.01 C91.98,219.99 112.93,190.63 122.93,178.24 C128.01,172.16 136.19,162.75 143.95,154.69 C155.14,143.46 179.07,122.10 191.47,112.28 C201.61,104.45 230.80,85.54 244.75,77.63 C251.73,73.82 268.76,65.13 272.93,63.27 C287.40,56.96 317.49,45.88 332.69,41.27 C344.13,38.02 351.68,36.15 363.32,33.71 C378.92,30.72 410.71,26.51 426.45,25.37 C437.42,24.66 474.10,25.47 490.03,26.78 C497.94,27.56 513.60,29.47 521.36,30.83 C536.90,33.75 568.03,41.53 583.16,46.26 C593.78,49.78 605.39,54.30 612.72,57.32 C627.34,63.64 659.55,79.87 669.58,85.92 C679.60,91.98 708.95,112.93 721.35,122.93 C727.43,128.01 736.84,136.19 744.90,143.95 C756.12,155.14 777.49,179.07 787.31,191.47 C795.14,201.61 814.05,230.80 821.96,244.75 C825.76,251.73 834.46,268.76 836.32,272.93 C842.63,287.40 853.71,317.49 858.31,332.69 C861.57,344.13 863.43,351.68 865.88,363.32 C868.87,378.92 873.08,410.71 874.22,426.45 C874.93,437.42 874.11,474.10 872.81,490.03 C872.03,497.94 870.12,513.60 868.76,521.36 C865.83,536.90 858.06,568.03 853.33,583.16 C849.81,593.78 845.29,605.39 842.27,612.72 C835.95,627.34 819.72,659.55 813.67,669.58 C807.61,679.60 786.66,708.95 776.66,721.35 C771.58,727.43 763.40,736.84 755.64,744.90 C744.45,756.12 720.52,777.49 708.12,787.31 C697.98,795.14 668.79,814.05 654.84,821.96 C647.85,825.76 630.83,834.46 626.66,836.32 C612.19,842.63 582.10,853.71 566.90,858.31 C555.46,861.57 547.91,863.43 536.27,865.88 C520.67,868.87 488.88,873.08 473.14,874.22 C462.17,874.93 425.48,874.11 409.55,872.81 C401.65,872.03 385.99,870.12 378.23,868.76 C362.68,865.83 331.55,858.06 316.43,853.33 C305.81,849.81 294.19,845.29 286.87,842.27 C272.25,835.95 240.04,819.72 230.01,813.67 C219.99,807.61 190.63,786.66 178.24,776.66 C172.16,771.58 162.75,763.40 154.69,755.64 C143.46,744.45 122.10,720.52 112.28,708.12 C104.45,697.98 85.54,668.79 77.63,654.84 C73.82,647.85 65.13,630.83 63.27,626.66 C56.96,612.19 45.88,582.10 41.27,566.90 C38.02,555.46 36.15,547.91 33.71,536.27 C30.72,520.67 26.51,488.88 25.37,473.14 C24.66,462.17 25.47,425.48 26.78,409.55 C27.56,401.65 29.47,385.99 30.83,378.23 C33.75,362.68 41.53,331.55 46.26,316.43 C49.78,305.81 54.30,294.19 57.32,286.87 C63.64,272.25 79.87,240.04 85.92,230.01 Z" fill="none" stroke="rgb(252, 252, 252)" stroke-width="14.00" stroke-opacity="1.00" stroke-linejoin="round"/>
<path d="M299.06,501.95 L297.40,505.96" fill="none" stroke="rgb(252, 252, 252)" stroke-width="6.00" stroke-opacity="1.00" stroke-linejoin="round"/>
<path d="M299.00,501.00 L696.50,103.50" fill="none" stroke="rgb(252, 252, 252)" stroke-width="14.00" stroke-opacity="1.00" stroke-linejoin="round"/>
<path d="M350.62,449.38 L697.53,796.30" fill="none" stroke="rgb(252, 252, 252)" stroke-width="14.00" stroke-opacity="1.00" stroke-linejoin="round"/>
<path d="M599.51,202.39 L699.43,202.39" fill="none" stroke="rgb(252, 252, 252)" stroke-width="14.00" stroke-opacity="1.00" stroke-linejoin="round"/>
<path d="M701.13,201.50 L400.45,498.87" fill="none" stroke="rgb(252, 252, 252)" stroke-width="14.00" stroke-opacity="1.00" stroke-linejoin="round"/>
<path d="M448.53,449.29" fill="none" stroke="rgb(252, 252, 252)" stroke-width="6.00" stroke-opacity="1.00" stroke-linejoin="round"/>
<path d="M697.93,699.43 L602.51,699.43" fill="none" stroke="rgb(252, 252, 252)" stroke-width="6.00" stroke-opacity="1.00" stroke-linejoin="round"/>
<path d="M272.20,372.20 L102.96,202.96" fill="none" stroke="rgb(252, 252, 252)" stroke-width="14.00" stroke-opacity="1.00" stroke-linejoin="round"/>
<path d="M604.55,700.00 L711.14,700.00" fill="none" stroke="rgb(252, 252, 252)" stroke-width="14.00" stroke-opacity="1.00" stroke-linejoin="round"/>
<path d="M714.50,700.00 L458.90,444.40" fill="none" stroke="rgb(252, 252, 252)" stroke-width="14.00" stroke-opacity="1.00" stroke-linejoin="round"/>
<path d="M450.99,873.44 L454.09,874.73" fill="none" stroke="rgb(252, 252, 252)" stroke-width="6.00" stroke-opacity="1.00" stroke-linejoin="round"/>
<path d="M684.81,699.95 L714.45,699.95" fill="none" stroke="rgb(252, 252, 252)" stroke-width="6.00" stroke-opacity="1.00" stroke-linejoin="round"/>
<path d="M712.52,698.92 L713.60,700.00" fill="none" stroke="rgb(252, 252, 252)" stroke-width="6.00" stroke-opacity="1.00" stroke-linejoin="round"/>
<path d="M692.78,210.28 L700.66,202.39" fill="none" stroke="rgb(252, 252, 252)" stroke-width="6.00" stroke-opacity="1.00" stroke-linejoin="round"/>
<path d="M274.57,65.17 L274.57,521.88" fill="none" stroke="rgb(252, 252, 252)" stroke-width="14.00" stroke-opacity="1.00" stroke-linejoin="round"/>
<path d="M350.39,449.42 L274.57,525.24" fill="none" stroke="rgb(252, 252, 252)" stroke-width="14.00" stroke-opacity="1.00" stroke-linejoin="round"/>
</g>
</svg>
