<?xml version="1.0" encoding="UTF-8" standalone="no"?>
<!DOCTYPE svg PUBLIC "-//W3C//DTD SVG 1.1//EN" "http://www.w3.org/Graphics/SVG/1.1/DTD/svg11.dtd">
<svg width="54.00" height="54.00" viewBox="0.00 0.00 900.00 900.00" xmlns="http://www.w3.org/2000/svg" xmlns:xlink="http://www.w3.org/1999/xlink">
<g stroke-linecap="round" id="outline_light_Copy">
<path d="M666.50,106.50 C659.36,101.31 653.26,97.79 643.15,92.56 C628.09,85.08 596.12,69.56 585.80,65.73 C575.39,61.88 537.07,51.80 525.03,49.07 C516.74,47.36 500.34,44.43 491.99,43.38 C476.13,41.67 438.23,40.37 429.98,40.69 C422.99,40.98 409.63,42.92 400.50,44.50 C383.93,47.87 342.47,56.47 339.20,57.39 C335.75,58.37 320.71,64.38 313.46,67.24 C305.35,70.36 292.75,74.49 292.62,74.54 C291.01,75.28 290.38,76.81 290.48,78.88 C290.51,79.28 290.18,157.40 290.12,189.12 C290.13,229.14 290.19,310.67 290.24,352.18 C290.29,385.45 290.41,443.67 290.47,468.62 C290.50,478.50 290.63,479.02 291.38,480.18" fill="none" stroke="rgb(255, 255, 255)" stroke-width="7.00" stroke-opacity="1.00" stroke-linejoin="round"/>
<path d="M257.50,330.50 C258.50,320.61 258.52,293.85 258.50,280.23 C258.45,245.01 258.65,173.40 258.91,137.00 C259.10,120.64 258.76,93.89 258.50,93.50 C257.68,92.42 256.05,92.83 252.80,94.93 C248.13,98.01 231.41,107.23 228.79,108.90 C222.99,112.62 209.31,122.94 203.39,127.49 C196.81,132.79 183.97,143.35 178.07,148.49 C171.07,154.79 160.02,165.59 153.87,172.43 C140.01,188.08 131.60,198.16 130.18,200.55 C129.48,201.86 129.64,204.00 130.70,205.20 C130.72,205.23 139.54,212.48 141.24,214.12 C163.28,235.99 212.00,284.71 238.68,311.55 C247.26,320.18 256.86,329.86 257.90,330.90" fill="none" stroke="rgb(255, 255, 255)" stroke-width="7.00" stroke-opacity="1.00" stroke-linejoin="round"/>
<path d="M665.00,108.00 C649.47,123.49 613.85,159.01 593.77,179.03 C569.15,203.59 515.35,257.25 486.18,286.34 C455.95,316.49 399.95,372.34 374.19,398.03 C352.97,419.19 315.09,456.98 298.42,473.60 C296.65,475.36 293.19,478.81 291.50,480.50" fill="none" stroke="rgb(255, 255, 255)" stroke-width="7.00" stroke-opacity="1.00" stroke-linejoin="round"/>
<path d="M641.50,185.50 C665.19,161.68 697.34,129.59 697.50,129.50 C698.31,129.11 699.06,129.11 699.75,129.50 C700.50,129.96 705.40,134.72 707.61,136.53 C716.08,143.26 725.74,151.74 732.27,158.14 C737.42,163.36 748.08,174.38 753.55,180.34 C758.85,186.35 767.24,196.36 773.87,205.09 C780.96,214.87 800.91,245.73 807.24,256.76 C814.38,269.67 824.34,291.67 831.88,311.27 C834.69,318.91 839.94,334.31 842.30,341.93 C846.58,356.66 852.57,384.94 855.54,402.86 C857.92,419.26 859.55,447.31 859.50,447.50 C859.30,448.22 858.40,449.83 858.38,451.66 C858.23,458.95 857.62,478.41 857.22,482.88 C856.55,489.75 854.95,502.61 853.27,512.43 C850.99,524.13 841.62,561.07 837.67,573.49 C833.93,584.46 829.23,596.39 826.16,603.73 C819.81,618.19 804.70,648.08 797.37,660.51 C793.21,667.27 784.75,680.05 780.42,686.14 C775.87,692.24 764.73,706.10 760.88,710.49 C750.09,722.45 721.11,751.18 717.50,754.50 C708.69,762.45 701.08,768.46 698.50,770.50" fill="none" stroke="rgb(255, 255, 255)" stroke-width="7.00" stroke-opacity="1.00" stroke-linejoin="round"/>
<path d="M643.35,186.49 C643.64,186.50 711.07,186.45 711.50,186.50 C713.40,186.75 715.05,188.38 715.50,190.50 C715.61,191.09 715.66,201.61 715.64,206.11 C715.53,212.23 715.20,214.73 713.50,216.50 C696.49,233.33 655.07,274.28 630.66,298.42 C600.69,328.03 546.25,381.77 521.78,405.89 C487.75,439.32 484.33,441.96 484.50,442.50 C484.57,442.69 543.93,502.27 569.69,528.02 C596.65,554.89 644.06,602.13 664.50,622.50 C689.63,647.64 717.63,675.64 720.50,678.50 C726.05,684.08 728.39,686.73 729.50,690.50 C730.78,695.11 730.13,708.82 729.50,710.50 C728.85,712.09 727.04,714.08 725.68,714.54 C721.65,715.80 655.51,715.69 653.50,715.50 C651.11,715.30 645.43,714.43 645.00,714.56 C643.89,714.92 644.64,716.81 646.06,718.27 C668.20,740.87 694.97,767.05 696.86,768.90" fill="none" stroke="rgb(255, 255, 255)" stroke-width="7.00" stroke-opacity="1.00" stroke-linejoin="round"/>
<path d="M653.68,218.54 C653.39,218.50 611.81,218.04 609.50,218.50 C606.59,219.14 605.03,220.18 603.75,222.40 C602.64,224.37 579.26,247.95 570.08,257.18 C546.24,281.03 492.66,334.53 462.91,364.18 C438.26,388.77 379.50,447.56 379.16,447.83 C378.04,448.77 377.49,449.33 377.50,449.50 C377.54,449.83 392.71,464.97 397.68,469.88 C399.17,471.32 400.48,472.00 401.30,471.31 C402.19,470.53 407.86,464.16 408.76,463.26 C426.75,445.41 469.42,403.17 494.09,378.77 C524.34,348.92 580.46,293.54 606.33,268.01 C625.47,249.12 650.06,224.87 655.50,219.50" fill="none" stroke="rgb(255, 255, 255)" stroke-width="7.00" stroke-opacity="1.00" stroke-linejoin="round"/>
<path d="M666.50,792.50 C647.67,804.13 623.06,817.89 616.13,821.08 C610.99,823.43 593.73,830.28 586.63,832.88 C578.85,835.56 562.89,840.89 554.87,843.32 C547.01,845.55 531.02,849.54 522.20,851.39 C511.86,853.27 497.49,855.20 489.81,856.16 C479.59,857.32 468.74,858.24 460.01,858.31 C455.95,858.42 452.08,859.46 451.50,859.50 C450.72,859.55 429.00,857.49 423.73,857.33 C413.01,857.00 407.97,856.28 397.14,854.26 C380.25,850.85 342.38,842.99 333.59,840.54 C324.56,838.00 295.23,825.89 280.40,819.40 C272.74,815.75 254.57,806.17 250.06,803.46 C236.23,794.94 209.37,775.75 196.70,766.46 C190.68,761.90 176.90,750.43 172.60,746.36 C158.93,733.04 138.25,710.68 134.14,705.66 C129.63,700.13 120.36,687.36 114.64,678.64 C106.40,665.51 87.42,632.85 81.55,621.64 C77.16,612.91 71.14,599.67 67.99,592.11 C64.61,583.36 60.45,570.84 58.32,563.75 C56.30,556.55 53.27,544.65 50.95,533.43 C48.55,520.69 42.60,480.42 41.49,469.89 C40.70,460.55 40.40,448.03 40.59,442.67 C40.86,436.25 41.68,419.59 42.18,414.63 C43.08,405.90 45.18,393.55 47.56,382.11 C50.09,370.92 60.98,327.71 62.16,324.35 C63.81,319.75 80.04,282.12 86.60,267.61 C91.55,257.09 103.64,237.02 104.91,234.58 C105.76,233.31 106.73,233.57 108.21,235.17 C108.50,235.49 176.08,302.73 204.94,331.68 C227.07,353.91 256.50,383.52 256.81,383.80 C258.38,385.25 258.62,385.76 258.50,387.50 C258.40,388.67 258.32,481.62 258.38,517.43 C258.40,520.49 258.48,528.65 258.47,529.02 C258.46,532.32 259.98,538.34 261.50,539.50 C262.20,539.99 282.68,541.31 285.50,540.50 C286.73,540.12 289.01,538.79 289.83,537.98 C290.43,537.37 304.46,522.64 309.43,517.76 C322.48,505.14 344.55,483.49 344.77,483.29 C346.26,481.92 347.32,479.10 348.12,478.17 C349.13,477.03 350.79,477.61 352.18,479.15 C352.45,479.46 406.23,532.49 427.77,553.83 C454.60,580.49 511.86,637.48 542.30,667.79 C568.43,693.83 615.38,740.59 636.20,761.33 C644.61,769.71 659.30,784.33 665.57,790.58" fill="none" stroke="rgb(255, 255, 255)" stroke-width="7.00" stroke-opacity="1.00" stroke-linejoin="round"/>
<path d="M670.50,683.50 C653.47,666.46 611.58,624.56 586.73,599.70 C557.12,570.07 504.58,517.53 481.66,494.62 C473.12,486.09 457.50,470.50 457.50,470.50 C456.57,470.32 453.33,473.85 448.81,478.52 C445.50,481.90 439.14,488.27 436.10,491.26 C431.91,495.21 427.24,498.66 427.50,499.50 C427.58,499.73 489.73,562.13 516.65,589.05 C544.23,616.51 590.31,662.39 608.79,680.80 C611.29,683.31 613.67,684.54 617.09,684.52 C634.36,684.53 668.39,684.50 668.65,684.48" fill="none" stroke="rgb(255, 255, 255)" stroke-width="7.00" stroke-opacity="1.00" stroke-linejoin="round"/>
<path d="M685.39,114.40 C685.39,114.40 688.96,112.13 688.96,112.13" fill="none" stroke="rgb(255, 255, 255)" stroke-width="7.00" stroke-opacity="1.00" stroke-linejoin="round"/>
<path d="M665.48,81.71 C665.80,81.93 669.22,83.75 670.45,84.99 C670.65,85.19 672.01,86.32 672.15,86.68 C672.15,86.68 676.47,91.38 676.47,91.38 C676.47,91.38 681.82,95.32 681.82,95.32 C683.66,99.33 687.63,100.34 688.11,101.24 C688.11,101.24 696.66,108.00 696.66,108.00" fill="none" stroke="rgb(255, 255, 255)" stroke-width="7.00" stroke-opacity="1.00" stroke-linejoin="round"/>
<path d="M653.20,75.10 C653.20,75.10 656.51,78.41 656.51,78.41 C656.74,78.53 658.62,79.08 658.99,79.34 C659.16,79.47 662.15,81.48 662.29,81.61 C662.29,81.61 665.81,83.37 665.81,83.37 C668.13,84.32 670.57,87.34 676.45,89.36 C676.57,89.40 676.71,89.44 676.86,89.46" fill="none" stroke="rgb(255, 255, 255)" stroke-width="7.00" stroke-opacity="1.00" stroke-linejoin="round"/>
<path d="M682.05,115.85 C684.97,112.83 686.51,111.79 688.27,110.20 C690.18,108.47 695.02,105.51 695.39,105.26" fill="none" stroke="rgb(255, 255, 255)" stroke-width="7.00" stroke-opacity="1.00" stroke-linejoin="round"/>
<path d="M246.38,343.12 C246.38,343.12 249.86,347.62 249.86,347.62 C249.86,347.62 251.17,349.31 251.17,349.31" fill="none" stroke="rgb(255, 255, 255)" stroke-width="7.00" stroke-opacity="1.00" stroke-linejoin="round"/>
<path d="M250.66,348.66 C250.90,348.75 252.91,351.40 253.24,351.90 C254.54,353.53 254.39,354.38 254.88,354.67 C255.65,355.12 256.76,356.18 256.81,356.31 C256.81,356.31 258.73,358.00 258.73,358.00 C258.73,358.00 264.51,363.21 264.51,363.21" fill="none" stroke="rgb(255, 255, 255)" stroke-width="7.00" stroke-opacity="1.00" stroke-linejoin="round"/>
<path d="M264.40,363.96" fill="none" stroke="rgb(255, 255, 255)" stroke-width="7.00" stroke-opacity="1.00" stroke-linejoin="round"/>
<path d="M264.40,363.96 L223.99,320.72" fill="none" stroke="rgb(255, 255, 255)" stroke-width="7.00" stroke-opacity="1.00" stroke-linejoin="round"/>
<path d="M223.99,320.72" fill="none" stroke="rgb(255, 255, 255)" stroke-width="7.00" stroke-opacity="1.00" stroke-linejoin="round"/>
<path d="M224.38,320.60" fill="none" stroke="rgb(255, 255, 255)" stroke-width="7.00" stroke-opacity="1.00" stroke-linejoin="round"/>
<path d="M222.84,319.06" fill="none" stroke="rgb(255, 255, 255)" stroke-width="7.00" stroke-opacity="1.00" stroke-linejoin="round"/>
<path d="M222.84,319.06 L272.49,369.47" fill="none" stroke="rgb(255, 255, 255)" stroke-width="7.00" stroke-opacity="1.00" stroke-linejoin="round"/>
<path d="M272.49,369.47" fill="none" stroke="rgb(255, 255, 255)" stroke-width="7.00" stroke-opacity="1.00" stroke-linejoin="round"/>
<path d="M272.78,330.22" fill="none" stroke="rgb(255, 255, 255)" stroke-width="7.00" stroke-opacity="1.00" stroke-linejoin="round"/>
<path d="M272.78,330.22 L273.35,233.27" fill="none" stroke="rgb(255, 255, 255)" stroke-width="7.00" stroke-opacity="1.00" stroke-linejoin="round"/>
<path d="M273.35,233.27" fill="none" stroke="rgb(255, 255, 255)" stroke-width="7.00" stroke-opacity="1.00" stroke-linejoin="round"/>
<path d="M665.51,771.49" fill="none" stroke="rgb(255, 255, 255)" stroke-width="7.00" stroke-opacity="1.00" stroke-linejoin="round"/>
<path d="M665.51,771.49 L705.87,807.62" fill="none" stroke="rgb(255, 255, 255)" stroke-width="7.00" stroke-opacity="1.00" stroke-linejoin="round"/>
<path d="M705.87,807.62" fill="none" stroke="rgb(255, 255, 255)" stroke-width="7.00" stroke-opacity="1.00" stroke-linejoin="round"/>
<path d="M705.87,807.62 L658.74,764.58" fill="none" stroke="rgb(255, 255, 255)" stroke-width="7.00" stroke-opacity="1.00" stroke-linejoin="round"/>
<path d="M658.74,764.58" fill="none" stroke="rgb(255, 255, 255)" stroke-width="7.00" stroke-opacity="1.00" stroke-linejoin="round"/>
<path d="M664.00,769.93 C664.00,769.93 664.10,769.94 664.10,769.94" fill="none" stroke="rgb(255, 255, 255)" stroke-width="7.00" stroke-opacity="1.00" stroke-linejoin="round"/>
<path d="M686.19,793.58 C686.19,793.58 689.51,796.19 689.51,796.19" fill="none" stroke="rgb(255, 255, 255)" stroke-width="7.00" stroke-opacity="1.00" stroke-linejoin="round"/>
<path d="M683.58,775.73" fill="none" stroke="rgb(255, 255, 255)" stroke-width="7.00" stroke-opacity="1.00" stroke-linejoin="round"/>
<path d="M683.58,775.73 L706.44,798.03" fill="none" stroke="rgb(255, 255, 255)" stroke-width="7.00" stroke-opacity="1.00" stroke-linejoin="round"/>
<path d="M706.44,798.03" fill="none" stroke="rgb(255, 255, 255)" stroke-width="7.00" stroke-opacity="1.00" stroke-linejoin="round"/>
<path d="M700.94,788.03" fill="none" stroke="rgb(255, 255, 255)" stroke-width="7.00" stroke-opacity="1.00" stroke-linejoin="round"/>
<path d="M693.72,789.97" fill="none" stroke="rgb(255, 255, 255)" stroke-width="7.00" stroke-opacity="1.00" stroke-linejoin="round"/>
<path d="M679.50,671.38" fill="none" stroke="rgb(255, 255, 255)" stroke-width="7.00" stroke-opacity="1.00" stroke-linejoin="round"/>
<path d="M679.50,671.38 L707.25,698.12" fill="none" stroke="rgb(255, 255, 255)" stroke-width="7.00" stroke-opacity="1.00" stroke-linejoin="round"/>
<path d="M707.25,698.12" fill="none" stroke="rgb(255, 255, 255)" stroke-width="7.00" stroke-opacity="1.00" stroke-linejoin="round"/>
<path d="M678.12,669.25 C678.12,669.25 684.19,676.94 684.19,676.94 C684.34,676.97 689.78,682.25 690.50,683.69 C690.55,683.78 691.48,684.63 691.56,684.75 C691.56,684.75 696.31,689.69 696.31,689.69 C696.31,689.69 697.56,690.69 697.56,690.69 C697.56,690.69 699.81,693.19 699.81,693.19 C699.81,693.19 701.62,694.88 701.62,694.88" fill="none" stroke="rgb(255, 255, 255)" stroke-width="7.00" stroke-opacity="1.00" stroke-linejoin="round"/>
<path d="M303.53,487.98" fill="none" stroke="rgb(255, 255, 255)" stroke-width="7.00" stroke-opacity="1.00" stroke-linejoin="round"/>
<path d="M682.67,204.90" fill="none" stroke="rgb(255, 255, 255)" stroke-width="7.00" stroke-opacity="1.00" stroke-linejoin="round"/>
<path d="M596.61,204.05" fill="none" stroke="rgb(255, 255, 255)" stroke-width="7.00" stroke-opacity="1.00" stroke-linejoin="round"/>
</g>
</svg>
